#N canvas 960 96 960 984 12;
#X obj 7 53 list trim;
#X obj 7 29 oscparse;
#X obj 7 97 route rgb;
#X obj 7 121 unpack f f f;
#X floatatom 7 176 5 0 0 0 - - -;
#X floatatom 47 176 5 0 0 0 - - -;
#X floatatom 88 176 5 0 0 0 - - -;
#X obj 7 5 netreceive -u -b 3333;
#X obj 183 45 part nose;
#X floatatom 183 109 5 0 0 0 - - -;
#X floatatom 213 89 5 0 0 0 - - -;
#X floatatom 243 69 5 0 0 0 - - -;
#X floatatom 286 107 5 0 0 0 - - -;
#X floatatom 326 87 5 0 0 0 - - -;
#X floatatom 367 67 5 0 0 0 - - -;
#X obj 286 43 part leftEye;
#X floatatom 408 107 5 0 0 0 - - -;
#X floatatom 452 87 5 0 0 0 - - -;
#X floatatom 496 67 5 0 0 0 - - -;
#X obj 408 43 part rightEye;
#X floatatom 537 107 5 0 0 0 - - -;
#X floatatom 577 87 5 0 0 0 - - -;
#X floatatom 618 67 5 0 0 0 - - -;
#X obj 537 43 part leftEar;
#X floatatom 660 106 5 0 0 0 - - -;
#X floatatom 704 86 5 0 0 0 - - -;
#X floatatom 748 66 5 0 0 0 - - -;
#X obj 660 42 part rightEar;
#X floatatom 183 231 5 0 0 0 - - -;
#X floatatom 241 211 5 0 0 0 - - -;
#X floatatom 299 191 5 0 0 0 - - -;
#X obj 183 167 part leftShoulder;
#X floatatom 343 231 5 0 0 0 - - -;
#X floatatom 404 211 5 0 0 0 - - -;
#X floatatom 466 191 5 0 0 0 - - -;
#X obj 343 167 part rightShoulder;
#X floatatom 509 231 5 0 0 0 - - -;
#X floatatom 556 211 5 0 0 0 - - -;
#X floatatom 604 191 5 0 0 0 - - -;
#X floatatom 647 231 5 0 0 0 - - -;
#X floatatom 698 211 5 0 0 0 - - -;
#X floatatom 749 191 5 0 0 0 - - -;
#X obj 509 167 part leftElbow;
#X obj 647 167 part rightElbow;
#X floatatom 183 357 5 0 0 0 - - -;
#X floatatom 230 337 5 0 0 0 - - -;
#X floatatom 278 317 5 0 0 0 - - -;
#X floatatom 324 357 5 0 0 0 - - -;
#X floatatom 375 337 5 0 0 0 - - -;
#X floatatom 426 317 5 0 0 0 - - -;
#X floatatom 472 357 5 0 0 0 - - -;
#X floatatom 512 337 5 0 0 0 - - -;
#X floatatom 553 317 5 0 0 0 - - -;
#X floatatom 599 357 5 0 0 0 - - -;
#X floatatom 643 337 5 0 0 0 - - -;
#X floatatom 687 317 5 0 0 0 - - -;
#X obj 183 293 part leftWrist;
#X obj 324 293 part rightWrist;
#X obj 472 293 part leftHip;
#X obj 599 293 part rightHip;
#X floatatom 183 477 5 0 0 0 - - -;
#X floatatom 227 457 5 0 0 0 - - -;
#X floatatom 271 437 5 0 0 0 - - -;
#X floatatom 317 477 5 0 0 0 - - -;
#X floatatom 364 457 5 0 0 0 - - -;
#X floatatom 412 437 5 0 0 0 - - -;
#X floatatom 459 477 5 0 0 0 - - -;
#X floatatom 506 457 5 0 0 0 - - -;
#X floatatom 554 437 5 0 0 0 - - -;
#X floatatom 593 477 5 0 0 0 - - -;
#X floatatom 644 457 5 0 0 0 - - -;
#X floatatom 695 437 5 0 0 0 - - -;
#X obj 183 413 part leftKnee;
#X obj 317 413 part rightKnee;
#X obj 459 413 part leftAnkle;
#X obj 593 413 part rightAnkle;
#X obj 8 210 r \$0-model;
#X obj 183 5 r \$0-model;
#X obj 14 75 s \$0-model;
#X obj 183 130 r \$0-model;
#X obj 183 252 r \$0-model;
#X obj 183 378 r \$0-model;
#X obj 8 235 route score;
#X floatatom 8 260 5 0 0 0 - - -;
#X connect 0 0 2 0;
#X connect 0 0 78 0;
#X connect 1 0 0 0;
#X connect 2 0 3 0;
#X connect 3 0 4 0;
#X connect 3 1 5 0;
#X connect 3 2 6 0;
#X connect 7 0 1 0;
#X connect 8 0 9 0;
#X connect 8 1 10 0;
#X connect 8 2 11 0;
#X connect 15 0 12 0;
#X connect 15 1 13 0;
#X connect 15 2 14 0;
#X connect 19 0 16 0;
#X connect 19 1 17 0;
#X connect 19 2 18 0;
#X connect 23 0 20 0;
#X connect 23 1 21 0;
#X connect 23 2 22 0;
#X connect 27 0 24 0;
#X connect 27 1 25 0;
#X connect 27 2 26 0;
#X connect 31 0 28 0;
#X connect 31 1 29 0;
#X connect 31 2 30 0;
#X connect 35 0 32 0;
#X connect 35 1 33 0;
#X connect 35 2 34 0;
#X connect 42 0 36 0;
#X connect 42 1 37 0;
#X connect 42 2 38 0;
#X connect 43 0 39 0;
#X connect 43 1 40 0;
#X connect 43 2 41 0;
#X connect 56 0 44 0;
#X connect 56 1 45 0;
#X connect 56 2 46 0;
#X connect 57 0 47 0;
#X connect 57 1 48 0;
#X connect 57 2 49 0;
#X connect 58 0 50 0;
#X connect 58 1 51 0;
#X connect 58 2 52 0;
#X connect 59 0 53 0;
#X connect 59 1 54 0;
#X connect 59 2 55 0;
#X connect 72 0 60 0;
#X connect 72 1 61 0;
#X connect 72 2 62 0;
#X connect 73 0 63 0;
#X connect 73 1 64 0;
#X connect 73 2 65 0;
#X connect 74 0 66 0;
#X connect 74 1 67 0;
#X connect 74 2 68 0;
#X connect 75 0 69 0;
#X connect 75 1 70 0;
#X connect 75 2 71 0;
#X connect 76 0 82 0;
#X connect 77 0 8 0;
#X connect 77 0 15 0;
#X connect 77 0 19 0;
#X connect 77 0 23 0;
#X connect 77 0 27 0;
#X connect 79 0 31 0;
#X connect 79 0 35 0;
#X connect 79 0 42 0;
#X connect 79 0 43 0;
#X connect 80 0 56 0;
#X connect 80 0 57 0;
#X connect 80 0 58 0;
#X connect 80 0 59 0;
#X connect 81 0 72 0;
#X connect 81 0 73 0;
#X connect 81 0 74 0;
#X connect 81 0 75 0;
#X connect 82 0 83 0;
