#N canvas 0 96 960 984 12;
#X obj 8 12 inlet;
#X obj 8 59 route score x y;
#X floatatom 8 172 5 0 0 0 - - -;
#X obj 8 195 outlet;
#X floatatom 42 127 5 0 0 0 - - -;
#X obj 42 150 outlet;
#X floatatom 76 82 5 0 0 0 - - -;
#X obj 76 105 outlet;
#X obj 8 35 route \$1;
#X connect 0 0 8 0;
#X connect 1 0 2 0;
#X connect 1 1 4 0;
#X connect 1 2 6 0;
#X connect 2 0 3 0;
#X connect 4 0 5 0;
#X connect 6 0 7 0;
#X connect 8 0 1 0;
